Coordinates
version=1
nRows=65
nColumns=12
inDegrees=yes

Units are S.I. units (second, meters, Newtons, ...)
Angles are in degrees

endheader
time	SC_y	SC_z	SC_x	AC_y	AC_z	AC_x	GH_y	GH_z	GH_yy	EL_x	PS_y
       0.0              -30.45          1.892          38.61          66.54          -11.8         0.5981          174.3         -9.068         -148.6          125.0          105.3
    0.0482              -30.45          1.893           38.6          66.54          -11.8         0.5986          174.2         -9.057         -148.6          125.0          105.2
   0.09639              -30.45          1.894           38.6          66.54          -11.8         0.5992          174.2         -9.046         -148.6          125.0          105.2
    0.1446              -30.45          1.896           38.6          66.53          -11.8         0.5998          174.2         -9.033         -148.6          125.0          105.2
    0.1928              -30.45          1.897          38.59          66.53          -11.8         0.6004          174.1          -9.02         -148.6          125.0          105.2
     0.241              -30.45          1.898          38.59          66.52          -11.8         0.6011          174.1         -9.006         -148.6          125.0          105.2
    0.2892              -30.45            1.9          38.58          66.52          -11.8         0.6018          174.1         -8.991         -148.6          125.0          105.2
    0.3374              -30.45          1.901          38.57          66.51          -11.8         0.6025          174.0         -8.975         -148.6          125.0          105.2
    0.3856              -30.46          1.903          38.57          66.51          -11.8         0.6033          174.0         -8.958         -148.6          124.9          105.2
    0.4338              -30.46          1.905          38.56           66.5         -11.79         0.6042          173.9          -8.94         -148.6          124.9          105.2
     0.482              -30.46          1.907          38.55          66.49         -11.79         0.6051          173.9          -8.92         -148.6          124.9          105.2
    0.5302              -30.46          1.909          38.54          66.48         -11.79         0.6062          173.8         -8.899         -148.6          124.9          105.2
    0.5783              -30.46          1.911          38.54          66.48         -11.79         0.6072          173.8         -8.876         -148.6          124.9          105.1
    0.6265              -30.46          1.913          38.53          66.47         -11.79         0.6084          173.7         -8.852         -148.6          124.8          105.1
    0.6747              -30.47          1.916          38.52          66.46         -11.79         0.6097          173.6         -8.825         -148.6          124.8          105.1
    0.7229              -30.47          1.919          38.51          66.45         -11.78          0.611          173.5         -8.796         -148.6          124.8          105.1
    0.7711              -30.47          1.922          38.49          66.44         -11.78         0.6125          173.5         -8.764         -148.6          124.7          105.1
    0.8193              -30.47          1.925          38.48          66.42         -11.78         0.6142          173.4          -8.73         -148.6          124.7          105.1
    0.8675              -30.48          1.929          38.47          66.41         -11.78         0.6159          173.3         -8.693         -148.6          124.7          105.0
    0.9157              -30.48          1.933          38.45           66.4         -11.77         0.6179          173.1         -8.652         -148.6          124.6          105.0
    0.9639              -30.48          1.937          38.43          66.38         -11.77           0.62          173.0         -8.607         -148.6          124.6          105.0
     1.012              -30.49          1.942          38.41          66.36         -11.77         0.6224          172.9         -8.557         -148.6          124.5          105.0
      1.06              -30.49          1.947          38.39          66.34         -11.76          0.625          172.7         -8.502         -148.6          124.5          104.9
     1.108               -30.5          1.953          38.37          66.32         -11.76         0.6278          172.6         -8.442         -148.6          124.4          104.9
     1.157               -30.5           1.96          38.35           66.3         -11.75          0.631          172.4         -8.374         -148.6          124.4          104.8
     1.205              -30.51          1.967          38.32          66.27         -11.75         0.6346          172.2         -8.299         -148.6          124.3          104.8
     1.253              -30.51          1.975          38.28          66.24         -11.74         0.6386          172.0         -8.215         -148.7          124.2          104.8
     1.301              -30.52          1.985          38.25          66.21         -11.74         0.6431          171.7          -8.12         -148.7          124.1          104.7
     1.349              -30.53          1.995          38.21          66.17         -11.73         0.6482          171.4         -8.013         -148.7          124.0          104.6
     1.398              -30.54          2.007          38.16          66.12         -11.72         0.6539          171.1         -7.892         -148.7          123.9          104.6
     1.446              -30.55          2.021          38.11          66.07         -11.71         0.6605          170.7         -7.753         -148.7          123.8          104.5
     1.494              -30.56          2.036          38.05          66.02          -11.7         0.6681          170.3         -7.594         -148.7          123.6          104.4
     1.542              -30.58          2.054          37.98          65.95         -11.69         0.6768          169.8          -7.41         -148.7          123.4          104.3
      1.59               -30.6          2.075           37.9          65.87         -11.67         0.6869          169.2         -7.196         -148.8          123.2          104.2
     1.639              -30.61          2.099           37.8          65.78         -11.65         0.6988          168.5         -6.946         -148.8          123.0          104.0
     1.687              -30.64          2.128          37.69          65.68         -11.63         0.7128          167.7         -6.652         -148.8          122.7          103.8
     1.735              -30.67          2.162          37.56          65.55         -11.61         0.7294          166.8         -6.302         -148.9          122.3          103.6
     1.783               -30.7          2.203           37.4           65.4         -11.58         0.7493          165.6         -5.882         -148.9          121.9          103.4
     1.831              -30.74          2.253          37.21          65.22         -11.54         0.7734          164.2         -5.374         -149.0          121.4          103.1
      1.88              -30.79          2.313          36.97           65.0          -11.5         0.8028          162.5         -4.754         -149.1          120.8          102.7
     1.928              -30.85          2.388          36.68          64.73         -11.44         0.8391          160.5         -3.988         -149.1          120.1          102.3
     1.976              -30.92          2.481          36.32          64.38         -11.38         0.8844          157.9         -3.034         -149.3          119.1          101.7
     2.024              -31.02          2.599          35.86          63.95         -11.29         0.9415          154.6         -1.831         -149.4          117.9          101.0
     2.072              -31.14          2.748          35.28           63.4         -11.18          1.014          150.4        -0.3022         -149.6          116.4          100.2
     2.121               -31.3          2.939          34.54           62.7         -11.05          1.107          145.1          1.655         -149.8          114.5          99.01
     2.169              -31.49          3.185          33.58           61.8         -10.87          1.226          138.3          4.166         -150.1          112.0          97.55
     2.217              -31.75          3.498          32.36          60.66         -10.64          1.378          129.6          7.373         -150.5          108.9          95.69
     2.265              -32.07          3.892          30.83          59.21         -10.36           1.57          118.6          11.41         -151.0          104.9          93.34
     2.313              -32.46          4.372          28.96          57.45         -10.01          1.803          105.2          16.32         -151.5          100.1          90.48
     2.362              -32.91          4.928           26.8          55.41         -9.604          2.073          89.72          22.02         -152.2          94.51          87.17
      2.41               -33.4           5.53          24.46           53.2         -9.168          2.366          72.95          28.19         -152.9          88.45          83.58
     2.458              -33.88          6.133          22.11          50.99         -8.731          2.658          56.17          34.35         -153.6          82.39          79.99
     2.506              -34.34          6.689          19.95          48.95         -8.328          2.929          40.67          40.05         -154.3           76.8          76.68
     2.554              -34.72          7.169          18.08          47.19          -7.98          3.162           27.3          44.97         -154.9          71.97          73.82
     2.603              -35.04          7.563          16.55          45.75         -7.695          3.353          16.33           49.0         -155.4          68.01          71.47
     2.651               -35.3          7.876          15.33           44.6         -7.468          3.505           7.61          52.21         -155.7          64.86          69.61
     2.699               -35.5          8.121          14.38           43.7          -7.29          3.625         0.7803          54.72         -156.0          62.39          68.15
     2.747              -35.65          8.312          13.64           43.0         -7.152          3.717         -4.542          56.67         -156.3          60.47          67.01
     2.795              -35.77          8.462          13.06          42.45         -7.043           3.79           -8.7           58.2         -156.4          58.97          66.12
     2.844              -35.87          8.579           12.6          42.02         -6.958          3.847         -11.97          59.41         -156.6          57.79          65.42
     2.892              -35.94          8.672          12.24          41.68         -6.891          3.892         -14.57          60.36         -156.7          56.85          64.87
      2.94               -36.0          8.747          11.95           41.4         -6.837          3.929         -16.65          61.13         -156.8           56.1          64.42
     2.988              -36.05          8.808          11.71          41.18         -6.793          3.958         -18.34          61.75         -156.8          55.49          64.06
     3.036              -36.09          8.857          11.52           41.0         -6.757          3.982         -19.72          62.25         -156.9          54.99          63.76
     3.085              -36.13          8.898          11.36          40.85         -6.727          4.002         -20.86          62.67         -157.0          54.58          63.52
